<svg width="75" height="64" viewBox="0 0 75 64" fill="none" xmlns="http://www.w3.org/2000/svg">
<path d="M59.0601 63.2201C58.5339 63.222 58.0204 63.0739 57.5928 62.7968L37.4961 49.6396L17.3994 62.7968C16.97 63.078 16.4527 63.2287 15.9223 63.2269C15.3919 63.2252 14.8759 63.0712 14.4488 62.7871C14.0218 62.5031 13.7058 62.1038 13.5466 61.6469C13.3873 61.19 13.3931 60.6992 13.5631 60.2455L21.4012 39.2806L1.08726 26.7005C0.647244 26.4283 0.315147 26.0362 0.139489 25.5814C-0.0361683 25.1266 -0.0461811 24.633 0.110914 24.1728C0.26801 23.7125 0.58398 23.3096 1.01266 23.0231C1.44134 22.7365 1.96026 22.5813 2.49361 22.58H27.5548L35.1178 1.56144C35.2807 1.10765 35.5986 0.712132 36.0259 0.431615C36.4532 0.151097 36.9678 0 37.4961 0C38.0244 0 38.539 0.151097 38.9663 0.431615C39.3936 0.712132 39.7115 1.10765 39.8744 1.56144L47.4374 22.5871H72.4986C73.0326 22.5868 73.5527 22.741 73.9826 23.027C74.4126 23.313 74.7298 23.7158 74.8879 24.1765C75.046 24.6371 75.0366 25.1313 74.8612 25.5868C74.6857 26.0422 74.3533 26.435 73.9128 26.7075L53.591 39.2806L61.4244 60.2399C61.5513 60.5792 61.587 60.9409 61.5285 61.2952C61.47 61.6494 61.3191 61.9861 61.0881 62.2772C60.8571 62.5684 60.5528 62.8058 60.2001 62.9697C59.8475 63.1337 59.4567 63.2195 59.0601 63.2201Z" fill="black"/>
</svg>
