<svg width="75" height="63" viewBox="0 0 75 63" fill="none" xmlns="http://www.w3.org/2000/svg">
<path d="M59.0601 62.3685C58.5339 62.3703 58.0204 62.2247 57.5928 61.9523L37.4961 49.0169L17.3994 61.9523C16.97 62.2288 16.4527 62.3769 15.9223 62.3751C15.3919 62.3734 14.8759 62.222 14.4488 61.9428C14.0218 61.6635 13.7058 61.2709 13.5466 60.8217C13.3873 60.3726 13.3931 59.8901 13.5631 59.444L21.4012 38.8325L1.08726 26.4645C0.647244 26.1969 0.315147 25.8114 0.139489 25.3643C-0.0361683 24.9172 -0.0461811 24.432 0.110914 23.9794C0.26801 23.5269 0.58398 23.1309 1.01266 22.8491C1.44134 22.5674 1.96026 22.4148 2.49361 22.4135H27.5548L35.1178 1.74934C35.2807 1.30321 35.5986 0.914359 36.0259 0.638571C36.4532 0.362783 36.9678 0.214233 37.4961 0.214233C38.0244 0.214233 38.539 0.362783 38.9663 0.638571C39.3936 0.914359 39.7115 1.30321 39.8744 1.74934L47.4374 22.4205H72.4986C73.0326 22.4202 73.5527 22.5718 73.9826 22.853C74.4126 23.1342 74.7298 23.5302 74.8879 23.9831C75.046 24.4359 75.0366 24.9218 74.8612 25.3696C74.6857 25.8174 74.3533 26.2035 73.9128 26.4715L53.591 38.8325L61.4244 59.4385C61.5513 59.7721 61.587 60.1277 61.5285 60.476C61.47 60.8243 61.3191 61.1552 61.0881 61.4415C60.8571 61.7277 60.5528 61.9611 60.2001 62.1223C59.8475 62.2835 59.4567 62.3679 59.0601 62.3685Z" fill="white"/>
</svg>
